<svg width="57" height="39" viewBox="0 0 57 39" fill="none" xmlns="http://www.w3.org/2000/svg">
<path d="M54.7945 18.2233C54.6407 18.212 54.4626 18.2045 54.2826 18.2045C53.3751 18.2045 52.507 18.3733 51.7082 18.6808L51.757 18.6639C51.5226 18.7576 51.1476 18.7576 51.1157 19.0558C51.2451 19.1795 51.2638 19.3839 51.3726 19.5564C51.592 19.9276 51.862 20.2426 52.177 20.5051L52.1826 20.5107C52.5107 20.7676 52.8388 21.017 53.1838 21.2364C53.7932 21.6114 54.4851 21.8345 55.0813 22.2114C55.4207 22.4308 55.7676 22.7101 56.1126 22.9445C56.2832 23.0608 56.3938 23.2726 56.6132 23.3476V23.3008C56.5063 23.1601 56.4726 22.9558 56.3676 22.8001C56.2101 22.6426 56.0545 22.502 55.8988 22.3483C55.4338 21.7389 54.8957 21.2176 54.292 20.7826L54.2695 20.7676C53.7688 20.4264 52.672 19.9483 52.4657 19.3726L52.4357 19.3389C52.8445 19.2808 53.2082 19.1945 53.5588 19.0783L53.5138 19.0914C54.0463 18.9508 54.5338 18.9808 55.0832 18.8439C55.3307 18.7801 55.582 18.7033 55.8332 18.6245V18.4839C55.552 18.2026 55.342 17.8201 55.0513 17.5576C54.2845 16.8826 53.4388 16.2489 52.5482 15.6789L52.4638 15.6283C51.9726 15.3151 51.3482 15.1126 50.8307 14.8464C50.6432 14.7526 50.3301 14.7058 50.2213 14.5483C49.9776 14.2014 49.762 13.8039 49.5913 13.3839L49.5763 13.3426C49.1163 12.4501 48.6888 11.542 48.2938 10.6183C48.0238 9.90013 47.7557 9.31138 47.4538 8.74138L47.497 8.8295C46.0232 6.35638 43.9701 4.36888 41.5195 3.01325L41.4388 2.972C40.8595 2.68513 40.1863 2.462 39.4795 2.33638L39.4326 2.32888C39.0407 2.31013 38.6507 2.282 38.2607 2.26513C37.987 2.08888 37.7507 1.90888 37.5295 1.71013L37.5351 1.71575C36.6445 1.15325 34.3401 -0.0654985 33.6838 1.547C33.262 2.56325 34.3101 3.56638 34.672 4.082C34.9607 4.42513 35.2232 4.8095 35.4501 5.21638L35.4688 5.25388C35.5795 5.52575 35.6095 5.80513 35.7201 6.08825C35.992 6.93575 36.2676 7.63138 36.5807 8.3045L36.532 8.18825C36.7176 8.56138 36.9107 8.87825 37.1263 9.17825L37.1113 9.15575C37.237 9.32638 37.4526 9.407 37.5032 9.68825C37.342 10.0276 37.2163 10.4214 37.147 10.832L37.1432 10.8583C36.9407 11.4808 36.8226 12.1989 36.8226 12.9433C36.8226 14.1076 37.1095 15.2045 37.6157 16.1683L37.597 16.1308C37.8482 16.5189 38.4445 17.3814 39.2432 17.0514C39.9463 16.7701 39.7907 15.8795 39.9932 15.0958C40.0401 14.9083 40.0101 14.7845 40.1057 14.657V14.6926C40.3251 15.1333 40.5463 15.5533 40.747 15.9939C41.3132 16.8095 41.9863 17.5033 42.7551 18.0751L42.7795 18.092C43.1545 18.3733 43.4526 18.8608 43.9213 19.0333V18.9864H43.8857C43.7788 18.8701 43.6607 18.767 43.5313 18.6789L43.5238 18.6751C43.2332 18.3901 42.9632 18.0826 42.7195 17.7583L42.7045 17.7376C42.0932 16.9126 41.512 15.9789 41.0076 14.9983L40.9532 14.8839C40.6963 14.3926 40.4807 13.862 40.2745 13.3764C40.1807 13.1889 40.1807 12.9076 40.0232 12.8139C39.7457 13.1251 39.4963 13.472 39.2882 13.8451L39.2732 13.8751C39.0332 14.5745 38.8757 15.3826 38.8345 16.2208V16.2414C38.7707 16.2583 38.8026 16.2414 38.7707 16.2751C38.2701 16.1533 38.0976 15.6339 37.9101 15.197C37.6551 14.5108 37.507 13.7158 37.507 12.8889C37.507 12.2214 37.6026 11.5764 37.7826 10.967L37.7713 11.0158C37.882 10.6876 38.3507 9.65263 38.1632 9.33763C38.0657 9.0395 37.7563 8.86888 37.5838 8.627C37.3795 8.33825 37.192 8.01013 37.0363 7.66325L37.0213 7.62575C36.6463 6.75013 36.4588 5.77888 36.052 4.90325C35.8063 4.44575 35.5476 4.052 35.257 3.6845L35.2701 3.70138C34.9607 3.34325 34.6757 2.94388 34.4282 2.52013L34.4076 2.48263C34.3307 2.312 34.2201 2.02888 34.3438 1.84138C34.3663 1.73263 34.4526 1.64825 34.5632 1.63138C34.7695 1.46263 35.3507 1.682 35.5532 1.77575C36.1476 2.00075 36.6595 2.26513 37.1338 2.57638L37.1038 2.55763C37.3232 2.71138 37.5613 3.0095 37.8426 3.08638H38.1707C38.6713 3.197 39.2376 3.12013 39.7063 3.257C40.567 3.54763 41.3113 3.91138 41.9995 4.35763L41.9601 4.33325C44.0301 5.67013 45.6876 7.47763 46.8088 9.61325L46.8463 9.69013C47.0338 10.0501 47.1163 10.382 47.287 10.757C47.6151 11.5295 48.0201 12.3114 48.3538 13.0576C48.6707 13.8601 49.0457 14.5539 49.492 15.1933L49.4695 15.1595C49.7038 15.4876 50.6451 15.6583 51.067 15.8289C51.5113 15.9845 51.8676 16.1326 52.2126 16.2995L52.1432 16.2695C52.6813 16.5976 53.2063 16.9726 53.7126 17.3326C53.9695 17.5108 54.7513 17.9026 54.7982 18.2176L54.7945 18.2233ZM32.812 31.9351C32.812 31.9633 32.8138 31.9951 32.8138 32.027C32.8138 33.0733 32.347 34.0089 31.6082 34.6389L31.6026 34.6426C30.7926 35.3026 29.7482 35.7039 28.6101 35.7039C28.522 35.7039 28.4338 35.702 28.3476 35.6964H28.3588C26.9732 35.6776 25.6982 35.2276 24.6538 34.4757L24.6726 34.4889L25.2276 33.3733C26.032 33.8233 26.9882 34.1026 28.0045 34.142H28.0157C28.0663 34.1458 28.1245 34.1476 28.1845 34.1476C28.807 34.1476 29.3863 33.9526 29.8607 33.6208L29.8513 33.6264C30.2807 33.3001 30.5545 32.7901 30.5545 32.2164C30.5545 32.2051 30.5545 32.1957 30.5545 32.1845V32.1864C30.5545 31.4139 30.0163 30.7576 29.0357 30.2064C28.1263 29.7076 26.3113 28.667 26.3113 28.667C25.4151 28.112 24.8282 27.1351 24.8282 26.0214C24.8282 25.982 24.8282 25.9426 24.8301 25.9033V25.9089C24.8282 25.8733 24.8282 25.832 24.8282 25.7907C24.8282 24.8251 25.2538 23.9589 25.927 23.3701L25.9307 23.3664C26.647 22.7589 27.5826 22.3895 28.6045 22.3895C28.6701 22.3895 28.7338 22.3914 28.7976 22.3933H28.7882C28.8051 22.3933 28.8257 22.3933 28.8463 22.3933C30.0445 22.3933 31.1601 22.7514 32.0901 23.3683L32.0676 23.3551L31.5688 24.4708C30.8357 24.1408 29.9807 23.942 29.0807 23.9326H29.077C29.032 23.9289 28.9813 23.927 28.9288 23.927C28.4038 23.927 27.9201 24.1108 27.5413 24.4183L27.5451 24.4145C27.1907 24.7089 26.9657 25.1495 26.9638 25.6426C26.9638 26.4114 27.5113 27.0714 28.5238 27.6339C29.4445 28.1383 31.3045 29.2033 31.3045 29.2033C32.2195 29.7414 32.8251 30.7201 32.8251 31.8414C32.8251 31.8751 32.8251 31.9108 32.8232 31.9445V31.9389L32.812 31.9351ZM36.697 32.9308C36.1851 31.9089 35.887 30.7051 35.887 29.432C35.887 29.2314 35.8945 29.0326 35.9095 28.8376L35.9076 28.8639C35.9076 25.6001 36.8995 23.9676 38.8832 23.9664C38.932 23.9626 38.9901 23.9608 39.0501 23.9608C39.9407 23.9608 40.7226 24.4257 41.167 25.127L41.1726 25.1364C41.6807 26.1526 41.9788 27.3526 41.9788 28.6201C41.9788 28.8151 41.9713 29.0083 41.9582 29.1995L41.9601 29.1733C41.9601 32.4633 40.9682 34.1095 38.9845 34.112C38.9338 34.1158 38.8757 34.1176 38.8176 34.1176C37.927 34.1176 37.1432 33.6526 36.6988 32.9514L36.6932 32.942L36.697 32.9308ZM44.4107 35.8408L42.0295 34.6689C42.247 34.487 42.442 34.2958 42.622 34.0895L42.6276 34.0839C43.5895 32.7864 44.167 31.1533 44.167 29.387C44.167 29.1826 44.1595 28.9801 44.1445 28.7795L44.1463 28.8058C44.1463 24.5183 42.4632 22.3733 39.097 22.3708C39.022 22.367 38.9338 22.3651 38.8457 22.3651C37.4076 22.3651 36.1157 22.997 35.2363 24.0001L35.2326 24.0058C34.2745 25.3033 33.6988 26.9345 33.6988 28.7007C33.6988 28.8995 33.7063 29.0964 33.7213 29.2914L33.7195 29.2651C33.7026 29.4545 33.6932 29.6757 33.6932 29.8989C33.6932 31.5376 34.207 33.0564 35.0807 34.3033L35.0638 34.2789C35.9057 35.1751 37.1001 35.7339 38.422 35.7339C38.5457 35.7339 38.6676 35.7282 38.7876 35.7189L38.7707 35.7208C38.7876 35.7208 38.8101 35.7208 38.8307 35.7208C39.4138 35.7208 39.9782 35.6364 40.5126 35.4808L40.4713 35.492L43.5763 37.3014L44.4201 35.8445L44.4107 35.8408ZM52.1882 35.5239H46.0251V22.5676H48.0988V33.932H52.1882V35.5239ZM23.3113 25.9651C22.7732 29.8726 21.5413 33.3995 19.7395 36.5589L19.8145 36.4145C19.0926 37.8039 17.7276 38.7714 16.1245 38.927L16.1057 38.9289C15.6201 38.9026 15.1682 38.7864 14.7576 38.597L14.7801 38.6064V37.4495C15.037 37.4889 15.3332 37.5114 15.6351 37.5114C15.652 37.5114 15.6688 37.5114 15.6876 37.5114C15.7176 37.5133 15.7495 37.5133 15.7832 37.5133C16.3251 37.5133 16.822 37.3164 17.2045 36.9883L17.2007 36.9901C17.6132 36.6508 17.8776 36.1445 17.8926 35.5745C17.7932 34.7533 17.6038 34.0033 17.332 33.2964L17.3545 33.3601L14.9788 25.9651H17.1107L18.8151 31.4945C19.1188 32.2745 19.2951 33.1783 19.2951 34.1214C19.2951 34.1233 19.2951 34.1251 19.2951 34.1251C20.1988 31.7589 20.8851 28.9989 21.2338 26.1357L21.2507 25.9633L23.3113 25.9651ZM13.8988 35.5239H11.7276C11.6663 32.0726 11.4557 28.6283 11.0957 25.1908H11.077L7.77322 35.5239H6.12135L2.8401 25.1908H2.8176C2.56135 28.6295 2.40885 32.0739 2.3601 35.5239H0.380096C0.508846 30.9176 0.828846 26.5983 1.3401 22.5658H4.03447L7.16197 32.0889H7.18072L10.3363 22.5658H12.9013C13.4688 27.287 13.8032 31.6064 13.9045 35.5239H13.8988ZM38.8176 4.61075C38.8138 4.61075 38.8082 4.61075 38.8026 4.61075C38.5795 4.61075 38.3638 4.63888 38.1576 4.69138L38.1763 4.68763V4.71763H38.2082C38.3695 4.95763 38.5345 5.16575 38.7126 5.36075L38.7088 5.357C38.8345 5.60825 38.9432 5.85763 39.0688 6.107L39.1007 6.07138C39.3051 5.91013 39.4345 5.66263 39.4345 5.38513C39.4345 5.35138 39.4326 5.3195 39.4288 5.28575V5.2895C39.3351 5.17888 39.322 5.07013 39.2413 4.96138C39.1476 4.80388 38.947 4.727 38.8195 4.60325L38.8176 4.61075Z" fill="white"/>
</svg>
